<svg xmlns="http://www.w3.org/2000/svg" viewBox="0 0 200 200" width="200" height="200"><title>Forest Headphones asleep</title><g class="breathe"><ellipse cx="100" cy="110" rx="70" ry="66" fill="#1f6b3b"/><ellipse cx="76" cy="76" rx="22" ry="13" fill="#fff" opacity=".22"/><path d="M68 104q10 8 20 0" fill="none" stroke="#1b1b1b" stroke-width="5" stroke-linejoin="round" stroke-linecap="round"/><path d="M112 104q10 8 20 0" fill="none" stroke="#1b1b1b" stroke-width="5" stroke-linejoin="round" stroke-linecap="round"/><path d="M86 126q14 10 28 0" fill="none" stroke="#1b1b1b" stroke-width="5" stroke-linejoin="round" stroke-linecap="round"/><path d="M34 88C26 10, 174 10, 166 88" fill="none" stroke="#1b1b1b" stroke-width="11" stroke-linejoin="round" stroke-linecap="round"/><rect x="16" y="82" width="28" height="52" rx="12" fill="#1b1b1b"/><rect x="156" y="82" width="28" height="52" rx="12" fill="#1b1b1b"/><rect x="21" y="90" width="8" height="36" rx="4" fill="#3a3a3a"/><rect x="171" y="90" width="8" height="36" rx="4" fill="#3a3a3a"/></g><g fill="#9e9e9e" font-family="Arial, sans-serif" font-weight="700"><text x="150" y="40" font-size="22">z</text><text x="168" y="22" font-size="16">z</text></g></svg>
