<svg xmlns="http://www.w3.org/2000/svg" viewBox="0 0 200 200" width="200" height="200"><title>Ivory Heart asleep</title><g class="breathe"><path d="M100 172C46 136 26 104 40 72 52 46 88 44 100 70 112 44 148 46 160 72 174 104 154 136 100 172Z" fill="#f2e9d5" stroke="#f2e9d5" stroke-width="16" stroke-linejoin="round" stroke-linecap="round"/><ellipse cx="66" cy="72" rx="18" ry="10" fill="#fff" opacity=".22"/><path d="M62 98L40 92M138 98L160 92" stroke="#1b1b1b" stroke-width="3" stroke-linejoin="round" stroke-linecap="round"/><path d="M88 97q12 -6 24 0" fill="none" stroke="#1b1b1b" stroke-width="3.5"/><circle cx="76" cy="100" r="14" fill="#1b1b1b"/><circle cx="124" cy="100" r="14" fill="#1b1b1b"/><circle cx="71" cy="95" r="3" fill="#fff" opacity=".35"/><circle cx="119" cy="95" r="3" fill="#fff" opacity=".35"/></g><g fill="#9e9e9e" font-family="Arial, sans-serif" font-weight="700"><text x="150" y="40" font-size="22">z</text><text x="168" y="22" font-size="16">z</text></g></svg>
