<svg xmlns="http://www.w3.org/2000/svg" viewBox="0 0 200 200" width="200" height="200"><title>Lavender Beret</title><g class="breathe"><path d="M100 34C128 72 166 100 166 134 166 168 136 180 100 180 64 180 34 168 34 134 34 100 72 72 100 34Z" fill="#b8a1ea" stroke="#b8a1ea" stroke-width="10" stroke-linejoin="round" stroke-linecap="round"/><ellipse cx="80" cy="104" rx="18" ry="12" fill="#fff" opacity=".22"/><g class="blink"><ellipse cx="87" cy="124" rx="6.5" ry="9" fill="#1b1b1b"/><circle cx="89" cy="120.5" r="2" fill="#fff"/><ellipse cx="121" cy="124" rx="6.5" ry="9" fill="#1b1b1b"/><circle cx="123" cy="120.5" r="2" fill="#fff"/></g><g class="sway" transform="rotate(-16 86 70)"><ellipse cx="86" cy="70" rx="52" ry="21.84" fill="#1b1b1b"/><ellipse cx="86" cy="66" rx="41.6" ry="12.48" fill="#2c2c2c"/><circle cx="67.8" cy="48.16" r="9" fill="#1b1b1b"/></g></g></svg>
