<svg xmlns="http://www.w3.org/2000/svg" viewBox="0 0 200 200" width="200" height="200"><title>Rose Pearls asleep</title><g class="breathe"><ellipse cx="100" cy="110" rx="70" ry="66" fill="#f6a7bc"/><ellipse cx="76" cy="76" rx="22" ry="12" fill="#fff" opacity=".22"/><path d="M72 104q10 8 20 0" fill="none" stroke="#1b1b1b" stroke-width="5" stroke-linejoin="round" stroke-linecap="round"/><path d="M108 104q10 8 20 0" fill="none" stroke="#1b1b1b" stroke-width="5" stroke-linejoin="round" stroke-linecap="round"/><circle cx="34.0" cy="140.0" r="6" fill="#f7f2e7" stroke="#d9cfbb" stroke-width="1.2"/><circle cx="43.4" cy="144.0" r="6" fill="#f7f2e7" stroke="#d9cfbb" stroke-width="1.2"/><circle cx="52.9" cy="147.8" r="6" fill="#f7f2e7" stroke="#d9cfbb" stroke-width="1.2"/><circle cx="62.3" cy="151.2" r="6" fill="#f7f2e7" stroke="#d9cfbb" stroke-width="1.2"/><circle cx="71.7" cy="154.1" r="6" fill="#f7f2e7" stroke="#d9cfbb" stroke-width="1.2"/><circle cx="81.1" cy="156.2" r="6" fill="#f7f2e7" stroke="#d9cfbb" stroke-width="1.2"/><circle cx="90.6" cy="157.5" r="6" fill="#f7f2e7" stroke="#d9cfbb" stroke-width="1.2"/><circle cx="100.0" cy="158.0" r="6" fill="#f7f2e7" stroke="#d9cfbb" stroke-width="1.2"/><circle cx="109.4" cy="157.5" r="6" fill="#f7f2e7" stroke="#d9cfbb" stroke-width="1.2"/><circle cx="118.9" cy="156.2" r="6" fill="#f7f2e7" stroke="#d9cfbb" stroke-width="1.2"/><circle cx="128.3" cy="154.1" r="6" fill="#f7f2e7" stroke="#d9cfbb" stroke-width="1.2"/><circle cx="137.7" cy="151.2" r="6" fill="#f7f2e7" stroke="#d9cfbb" stroke-width="1.2"/><circle cx="147.1" cy="147.8" r="6" fill="#f7f2e7" stroke="#d9cfbb" stroke-width="1.2"/><circle cx="156.6" cy="144.0" r="6" fill="#f7f2e7" stroke="#d9cfbb" stroke-width="1.2"/><circle cx="166.0" cy="140.0" r="6" fill="#f7f2e7" stroke="#d9cfbb" stroke-width="1.2"/></g><g fill="#9e9e9e" font-family="Arial, sans-serif" font-weight="700"><text x="150" y="40" font-size="22">z</text><text x="168" y="22" font-size="16">z</text></g></svg>
